<?xml version="1.0" encoding="UTF-8" standalone="no"?>
<!DOCTYPE svg PUBLIC "-//W3C//DTD SVG 1.1//EN"
 "http://www.w3.org/Graphics/SVG/1.1/DTD/svg11.dtd">
<!-- Generated by graphviz version 2.36.0 (20140111.2315)
 -->
<!-- Title: controllers_diagram Pages: 1 -->
<svg width="792pt" height="703pt"
 viewBox="0.00 0.00 792.00 703.00" xmlns="http://www.w3.org/2000/svg" xmlns:xlink="http://www.w3.org/1999/xlink">
<g id="graph0" class="graph" transform="scale(1 1) rotate(0) translate(4 699)">
<title>controllers_diagram</title>
<polygon fill="none" stroke="none" points="-4,4 -4,-699 788,-699 788,4 -4,4"/>
<!-- _diagram_info -->
<g id="node1" class="node"><title>_diagram_info</title>
<text text-anchor="start" x="424" y="-191.6" font-family="Times,serif" font-size="13.00">Controllers diagram</text>
<text text-anchor="start" x="424" y="-177.6" font-family="Times,serif" font-size="13.00">Date: Dec 02 2015 &#45; 21:06</text>
<text text-anchor="start" x="424" y="-163.6" font-family="Times,serif" font-size="13.00">Migration version: 20151116171559</text>
<text text-anchor="start" x="424" y="-149.6" font-family="Times,serif" font-size="13.00">Generated by RailRoady 1.4.1</text>
<text text-anchor="start" x="424" y="-135.6" font-family="Times,serif" font-size="13.00">http://railroady.prestonlee.com</text>
</g>
<!-- ApplicationController -->
<g id="node2" class="node"><title>ApplicationController</title>
<path fill="none" stroke="black" d="M28,-32.5C28,-32.5 140,-32.5 140,-32.5 146,-32.5 152,-38.5 152,-44.5 152,-44.5 152,-114.5 152,-114.5 152,-120.5 146,-126.5 140,-126.5 140,-126.5 28,-126.5 28,-126.5 22,-126.5 16,-120.5 16,-114.5 16,-114.5 16,-44.5 16,-44.5 16,-38.5 22,-32.5 28,-32.5"/>
<text text-anchor="middle" x="84" y="-111.3" font-family="Times,serif" font-size="14.00">ApplicationController</text>
<polyline fill="none" stroke="black" points="16,-103.5 152,-103.5 "/>
<polyline fill="none" stroke="black" points="16,-79.5 152,-79.5 "/>
<polyline fill="none" stroke="black" points="16,-55.5 152,-55.5 "/>
<text text-anchor="start" x="24" y="-40.3" font-family="Times,serif" font-size="14.00">_layout</text>
</g>
<!-- DealsController -->
<g id="node3" class="node"><title>DealsController</title>
<path fill="none" stroke="black" d="M140,-336.5C140,-336.5 219,-336.5 219,-336.5 225,-336.5 231,-342.5 231,-348.5 231,-348.5 231,-507.5 231,-507.5 231,-513.5 225,-519.5 219,-519.5 219,-519.5 140,-519.5 140,-519.5 134,-519.5 128,-513.5 128,-507.5 128,-507.5 128,-348.5 128,-348.5 128,-342.5 134,-336.5 140,-336.5"/>
<text text-anchor="middle" x="179.5" y="-504.3" font-family="Times,serif" font-size="14.00">DealsController</text>
<polyline fill="none" stroke="black" points="128,-496.5 231,-496.5 "/>
<text text-anchor="start" x="136" y="-481.3" font-family="Times,serif" font-size="14.00">create</text>
<text text-anchor="start" x="136" y="-466.3" font-family="Times,serif" font-size="14.00">destroy</text>
<text text-anchor="start" x="136" y="-451.3" font-family="Times,serif" font-size="14.00">edit</text>
<text text-anchor="start" x="136" y="-436.3" font-family="Times,serif" font-size="14.00">index</text>
<text text-anchor="start" x="136" y="-421.3" font-family="Times,serif" font-size="14.00">new</text>
<text text-anchor="start" x="136" y="-406.3" font-family="Times,serif" font-size="14.00">update</text>
<polyline fill="none" stroke="black" points="128,-398.5 231,-398.5 "/>
<polyline fill="none" stroke="black" points="128,-374.5 231,-374.5 "/>
<text text-anchor="start" x="136" y="-359.3" font-family="Times,serif" font-size="14.00">_layout</text>
<text text-anchor="start" x="136" y="-344.3" font-family="Times,serif" font-size="14.00">deal_params</text>
</g>
<!-- PasswordResetsController -->
<g id="node4" class="node"><title>PasswordResetsController</title>
<path fill="none" stroke="black" d="M300,-528.5C300,-528.5 435,-528.5 435,-528.5 441,-528.5 447,-534.5 447,-540.5 447,-540.5 447,-669.5 447,-669.5 447,-675.5 441,-681.5 435,-681.5 435,-681.5 300,-681.5 300,-681.5 294,-681.5 288,-675.5 288,-669.5 288,-669.5 288,-540.5 288,-540.5 288,-534.5 294,-528.5 300,-528.5"/>
<text text-anchor="middle" x="367.5" y="-666.3" font-family="Times,serif" font-size="14.00">PasswordResetsController</text>
<polyline fill="none" stroke="black" points="288,-658.5 447,-658.5 "/>
<text text-anchor="start" x="296" y="-643.3" font-family="Times,serif" font-size="14.00">create</text>
<text text-anchor="start" x="296" y="-628.3" font-family="Times,serif" font-size="14.00">edit</text>
<text text-anchor="start" x="296" y="-613.3" font-family="Times,serif" font-size="14.00">new</text>
<text text-anchor="start" x="296" y="-598.3" font-family="Times,serif" font-size="14.00">update</text>
<polyline fill="none" stroke="black" points="288,-590.5 447,-590.5 "/>
<polyline fill="none" stroke="black" points="288,-566.5 447,-566.5 "/>
<text text-anchor="start" x="296" y="-551.3" font-family="Times,serif" font-size="14.00">_layout</text>
<text text-anchor="start" x="296" y="-536.3" font-family="Times,serif" font-size="14.00">user_params</text>
</g>
<!-- ShopsController -->
<g id="node5" class="node"><title>ShopsController</title>
<path fill="none" stroke="black" d="M556,-0.5C556,-0.5 637,-0.5 637,-0.5 643,-0.5 649,-6.5 649,-12.5 649,-12.5 649,-81.5 649,-81.5 649,-87.5 643,-93.5 637,-93.5 637,-93.5 556,-93.5 556,-93.5 550,-93.5 544,-87.5 544,-81.5 544,-81.5 544,-12.5 544,-12.5 544,-6.5 550,-0.5 556,-0.5"/>
<text text-anchor="middle" x="596.5" y="-78.3" font-family="Times,serif" font-size="14.00">ShopsController</text>
<polyline fill="none" stroke="black" points="544,-70.5 649,-70.5 "/>
<text text-anchor="start" x="552" y="-55.3" font-family="Times,serif" font-size="14.00">index</text>
<polyline fill="none" stroke="black" points="544,-47.5 649,-47.5 "/>
<polyline fill="none" stroke="black" points="544,-23.5 649,-23.5 "/>
<text text-anchor="start" x="552" y="-8.3" font-family="Times,serif" font-size="14.00">_layout</text>
</g>
<!-- CollectionsController -->
<g id="node6" class="node"><title>CollectionsController</title>
<path fill="none" stroke="black" d="M556,-240.5C556,-240.5 666,-240.5 666,-240.5 672,-240.5 678,-246.5 678,-252.5 678,-252.5 678,-351.5 678,-351.5 678,-357.5 672,-363.5 666,-363.5 666,-363.5 556,-363.5 556,-363.5 550,-363.5 544,-357.5 544,-351.5 544,-351.5 544,-252.5 544,-252.5 544,-246.5 550,-240.5 556,-240.5"/>
<text text-anchor="middle" x="611" y="-348.3" font-family="Times,serif" font-size="14.00">CollectionsController</text>
<polyline fill="none" stroke="black" points="544,-340.5 678,-340.5 "/>
<text text-anchor="start" x="552" y="-325.3" font-family="Times,serif" font-size="14.00">add_beer</text>
<text text-anchor="start" x="552" y="-310.3" font-family="Times,serif" font-size="14.00">delete_beer</text>
<text text-anchor="start" x="552" y="-295.3" font-family="Times,serif" font-size="14.00">show</text>
<polyline fill="none" stroke="black" points="544,-287.5 678,-287.5 "/>
<polyline fill="none" stroke="black" points="544,-263.5 678,-263.5 "/>
<text text-anchor="start" x="552" y="-248.3" font-family="Times,serif" font-size="14.00">_layout</text>
</g>
<!-- FriendsController -->
<g id="node7" class="node"><title>FriendsController</title>
<path fill="none" stroke="black" d="M268,-16.5C268,-16.5 357,-16.5 357,-16.5 363,-16.5 369,-22.5 369,-28.5 369,-28.5 369,-127.5 369,-127.5 369,-133.5 363,-139.5 357,-139.5 357,-139.5 268,-139.5 268,-139.5 262,-139.5 256,-133.5 256,-127.5 256,-127.5 256,-28.5 256,-28.5 256,-22.5 262,-16.5 268,-16.5"/>
<text text-anchor="middle" x="312.5" y="-124.3" font-family="Times,serif" font-size="14.00">FriendsController</text>
<polyline fill="none" stroke="black" points="256,-116.5 369,-116.5 "/>
<text text-anchor="start" x="264" y="-101.3" font-family="Times,serif" font-size="14.00">addFriend</text>
<text text-anchor="start" x="264" y="-86.3" font-family="Times,serif" font-size="14.00">show</text>
<text text-anchor="start" x="264" y="-71.3" font-family="Times,serif" font-size="14.00">showFriendList</text>
<polyline fill="none" stroke="black" points="256,-63.5 369,-63.5 "/>
<polyline fill="none" stroke="black" points="256,-39.5 369,-39.5 "/>
<text text-anchor="start" x="264" y="-24.3" font-family="Times,serif" font-size="14.00">_layout</text>
</g>
<!-- BeerCategoriesController -->
<g id="node8" class="node"><title>BeerCategoriesController</title>
<path fill="none" stroke="black" d="M108,-560.5C108,-560.5 239,-560.5 239,-560.5 245,-560.5 251,-566.5 251,-572.5 251,-572.5 251,-656.5 251,-656.5 251,-662.5 245,-668.5 239,-668.5 239,-668.5 108,-668.5 108,-668.5 102,-668.5 96,-662.5 96,-656.5 96,-656.5 96,-572.5 96,-572.5 96,-566.5 102,-560.5 108,-560.5"/>
<text text-anchor="middle" x="173.5" y="-653.3" font-family="Times,serif" font-size="14.00">BeerCategoriesController</text>
<polyline fill="none" stroke="black" points="96,-645.5 251,-645.5 "/>
<text text-anchor="start" x="104" y="-630.3" font-family="Times,serif" font-size="14.00">index</text>
<text text-anchor="start" x="104" y="-615.3" font-family="Times,serif" font-size="14.00">show</text>
<polyline fill="none" stroke="black" points="96,-607.5 251,-607.5 "/>
<polyline fill="none" stroke="black" points="96,-583.5 251,-583.5 "/>
<text text-anchor="start" x="104" y="-568.3" font-family="Times,serif" font-size="14.00">_layout</text>
</g>
<!-- WebServicesController -->
<g id="node9" class="node"><title>WebServicesController</title>
<path fill="none" stroke="black" d="M652,-576.5C652,-576.5 772,-576.5 772,-576.5 778,-576.5 784,-582.5 784,-588.5 784,-588.5 784,-672.5 784,-672.5 784,-678.5 778,-684.5 772,-684.5 772,-684.5 652,-684.5 652,-684.5 646,-684.5 640,-678.5 640,-672.5 640,-672.5 640,-588.5 640,-588.5 640,-582.5 646,-576.5 652,-576.5"/>
<text text-anchor="middle" x="712" y="-669.3" font-family="Times,serif" font-size="14.00">WebServicesController</text>
<polyline fill="none" stroke="black" points="640,-661.5 784,-661.5 "/>
<text text-anchor="start" x="648" y="-646.3" font-family="Times,serif" font-size="14.00">login</text>
<text text-anchor="start" x="648" y="-631.3" font-family="Times,serif" font-size="14.00">register</text>
<polyline fill="none" stroke="black" points="640,-623.5 784,-623.5 "/>
<polyline fill="none" stroke="black" points="640,-599.5 784,-599.5 "/>
<text text-anchor="start" x="648" y="-584.3" font-family="Times,serif" font-size="14.00">_layout</text>
</g>
<!-- BarsController -->
<g id="node10" class="node"><title>BarsController</title>
<path fill="none" stroke="black" d="M12,-432.5C12,-432.5 85,-432.5 85,-432.5 91,-432.5 97,-438.5 97,-444.5 97,-444.5 97,-513.5 97,-513.5 97,-519.5 91,-525.5 85,-525.5 85,-525.5 12,-525.5 12,-525.5 6,-525.5 5.68434e-14,-519.5 5.68434e-14,-513.5 5.68434e-14,-513.5 5.68434e-14,-444.5 5.68434e-14,-444.5 5.68434e-14,-438.5 6,-432.5 12,-432.5"/>
<text text-anchor="middle" x="48.5" y="-510.3" font-family="Times,serif" font-size="14.00">BarsController</text>
<polyline fill="none" stroke="black" points="5.68434e-14,-502.5 97,-502.5 "/>
<text text-anchor="start" x="8" y="-487.3" font-family="Times,serif" font-size="14.00">index</text>
<polyline fill="none" stroke="black" points="5.68434e-14,-479.5 97,-479.5 "/>
<polyline fill="none" stroke="black" points="5.68434e-14,-455.5 97,-455.5 "/>
<text text-anchor="start" x="8" y="-440.3" font-family="Times,serif" font-size="14.00">_layout</text>
</g>
<!-- UsersController -->
<g id="node11" class="node"><title>UsersController</title>
<path fill="none" stroke="black" d="M268,-176.5C268,-176.5 366,-176.5 366,-176.5 372,-176.5 378,-182.5 378,-188.5 378,-188.5 378,-482.5 378,-482.5 378,-488.5 372,-494.5 366,-494.5 366,-494.5 268,-494.5 268,-494.5 262,-494.5 256,-488.5 256,-482.5 256,-482.5 256,-188.5 256,-188.5 256,-182.5 262,-176.5 268,-176.5"/>
<text text-anchor="middle" x="317" y="-479.3" font-family="Times,serif" font-size="14.00">UsersController</text>
<polyline fill="none" stroke="black" points="256,-471.5 378,-471.5 "/>
<text text-anchor="start" x="264" y="-456.3" font-family="Times,serif" font-size="14.00">api_register</text>
<text text-anchor="start" x="264" y="-441.3" font-family="Times,serif" font-size="14.00">api_show</text>
<text text-anchor="start" x="264" y="-426.3" font-family="Times,serif" font-size="14.00">create</text>
<text text-anchor="start" x="264" y="-411.3" font-family="Times,serif" font-size="14.00">destroy</text>
<text text-anchor="start" x="264" y="-396.3" font-family="Times,serif" font-size="14.00">edit</text>
<text text-anchor="start" x="264" y="-381.3" font-family="Times,serif" font-size="14.00">index</text>
<text text-anchor="start" x="264" y="-366.3" font-family="Times,serif" font-size="14.00">new</text>
<text text-anchor="start" x="264" y="-351.3" font-family="Times,serif" font-size="14.00">show</text>
<text text-anchor="start" x="264" y="-336.3" font-family="Times,serif" font-size="14.00">update</text>
<polyline fill="none" stroke="black" points="256,-328.5 378,-328.5 "/>
<polyline fill="none" stroke="black" points="256,-304.5 378,-304.5 "/>
<text text-anchor="start" x="264" y="-289.3" font-family="Times,serif" font-size="14.00">_layout</text>
<text text-anchor="start" x="264" y="-274.3" font-family="Times,serif" font-size="14.00">admin_user</text>
<text text-anchor="start" x="264" y="-259.3" font-family="Times,serif" font-size="14.00">authenticate</text>
<text text-anchor="start" x="264" y="-244.3" font-family="Times,serif" font-size="14.00">authenticateFriends</text>
<text text-anchor="start" x="264" y="-229.3" font-family="Times,serif" font-size="14.00">correct_user</text>
<text text-anchor="start" x="264" y="-214.3" font-family="Times,serif" font-size="14.00">password_params</text>
<text text-anchor="start" x="264" y="-199.3" font-family="Times,serif" font-size="14.00">register_params</text>
<text text-anchor="start" x="264" y="-184.3" font-family="Times,serif" font-size="14.00">user_params</text>
</g>
<!-- BeersController -->
<g id="node12" class="node"><title>BeersController</title>
<path fill="none" stroke="black" d="M428,-240.5C428,-240.5 507,-240.5 507,-240.5 513,-240.5 519,-246.5 519,-252.5 519,-252.5 519,-456.5 519,-456.5 519,-462.5 513,-468.5 507,-468.5 507,-468.5 428,-468.5 428,-468.5 422,-468.5 416,-462.5 416,-456.5 416,-456.5 416,-252.5 416,-252.5 416,-246.5 422,-240.5 428,-240.5"/>
<text text-anchor="middle" x="467.5" y="-453.3" font-family="Times,serif" font-size="14.00">BeersController</text>
<polyline fill="none" stroke="black" points="416,-445.5 519,-445.5 "/>
<text text-anchor="start" x="424" y="-430.3" font-family="Times,serif" font-size="14.00">create</text>
<text text-anchor="start" x="424" y="-415.3" font-family="Times,serif" font-size="14.00">destroy</text>
<text text-anchor="start" x="424" y="-400.3" font-family="Times,serif" font-size="14.00">edit</text>
<text text-anchor="start" x="424" y="-385.3" font-family="Times,serif" font-size="14.00">index</text>
<text text-anchor="start" x="424" y="-370.3" font-family="Times,serif" font-size="14.00">new</text>
<text text-anchor="start" x="424" y="-355.3" font-family="Times,serif" font-size="14.00">show</text>
<text text-anchor="start" x="424" y="-340.3" font-family="Times,serif" font-size="14.00">update</text>
<text text-anchor="start" x="424" y="-325.3" font-family="Times,serif" font-size="14.00">upload_img</text>
<polyline fill="none" stroke="black" points="416,-317.5 519,-317.5 "/>
<polyline fill="none" stroke="black" points="416,-293.5 519,-293.5 "/>
<text text-anchor="start" x="424" y="-278.3" font-family="Times,serif" font-size="14.00">_layout</text>
<text text-anchor="start" x="424" y="-263.3" font-family="Times,serif" font-size="14.00">admin_user</text>
<text text-anchor="start" x="424" y="-248.3" font-family="Times,serif" font-size="14.00">beer_params</text>
</g>
<!-- PagesController -->
<g id="node13" class="node"><title>PagesController</title>
<path fill="none" stroke="black" d="M492,-496.5C492,-496.5 599,-496.5 599,-496.5 605,-496.5 611,-502.5 611,-508.5 611,-508.5 611,-682.5 611,-682.5 611,-688.5 605,-694.5 599,-694.5 599,-694.5 492,-694.5 492,-694.5 486,-694.5 480,-688.5 480,-682.5 480,-682.5 480,-508.5 480,-508.5 480,-502.5 486,-496.5 492,-496.5"/>
<text text-anchor="middle" x="545.5" y="-679.3" font-family="Times,serif" font-size="14.00">PagesController</text>
<polyline fill="none" stroke="black" points="480,-671.5 611,-671.5 "/>
<text text-anchor="start" x="488" y="-656.3" font-family="Times,serif" font-size="14.00">about</text>
<text text-anchor="start" x="488" y="-641.3" font-family="Times,serif" font-size="14.00">administration_beers</text>
<text text-anchor="start" x="488" y="-626.3" font-family="Times,serif" font-size="14.00">administration_deals</text>
<text text-anchor="start" x="488" y="-611.3" font-family="Times,serif" font-size="14.00">beermap</text>
<text text-anchor="start" x="488" y="-596.3" font-family="Times,serif" font-size="14.00">collection</text>
<text text-anchor="start" x="488" y="-581.3" font-family="Times,serif" font-size="14.00">contact</text>
<text text-anchor="start" x="488" y="-566.3" font-family="Times,serif" font-size="14.00">help</text>
<text text-anchor="start" x="488" y="-551.3" font-family="Times,serif" font-size="14.00">home</text>
<polyline fill="none" stroke="black" points="480,-543.5 611,-543.5 "/>
<polyline fill="none" stroke="black" points="480,-519.5 611,-519.5 "/>
<text text-anchor="start" x="488" y="-504.3" font-family="Times,serif" font-size="14.00">_layout</text>
</g>
<!-- ReviewsController -->
<g id="node14" class="node"><title>ReviewsController</title>
<path fill="none" stroke="black" d="M412,-0.5C412,-0.5 507,-0.5 507,-0.5 513,-0.5 519,-6.5 519,-12.5 519,-12.5 519,-81.5 519,-81.5 519,-87.5 513,-93.5 507,-93.5 507,-93.5 412,-93.5 412,-93.5 406,-93.5 400,-87.5 400,-81.5 400,-81.5 400,-12.5 400,-12.5 400,-6.5 406,-0.5 412,-0.5"/>
<text text-anchor="middle" x="459.5" y="-78.3" font-family="Times,serif" font-size="14.00">ReviewsController</text>
<polyline fill="none" stroke="black" points="400,-70.5 519,-70.5 "/>
<text text-anchor="start" x="408" y="-55.3" font-family="Times,serif" font-size="14.00">show</text>
<polyline fill="none" stroke="black" points="400,-47.5 519,-47.5 "/>
<polyline fill="none" stroke="black" points="400,-23.5 519,-23.5 "/>
<text text-anchor="start" x="408" y="-8.3" font-family="Times,serif" font-size="14.00">_layout</text>
</g>
<!-- ContactsController -->
<g id="node15" class="node"><title>ContactsController</title>
<path fill="none" stroke="black" d="M124,-160.5C124,-160.5 219,-160.5 219,-160.5 225,-160.5 231,-166.5 231,-172.5 231,-172.5 231,-286.5 231,-286.5 231,-292.5 225,-298.5 219,-298.5 219,-298.5 124,-298.5 124,-298.5 118,-298.5 112,-292.5 112,-286.5 112,-286.5 112,-172.5 112,-172.5 112,-166.5 118,-160.5 124,-160.5"/>
<text text-anchor="middle" x="171.5" y="-283.3" font-family="Times,serif" font-size="14.00">ContactsController</text>
<polyline fill="none" stroke="black" points="112,-275.5 231,-275.5 "/>
<text text-anchor="start" x="120" y="-260.3" font-family="Times,serif" font-size="14.00">create</text>
<text text-anchor="start" x="120" y="-245.3" font-family="Times,serif" font-size="14.00">new</text>
<text text-anchor="start" x="120" y="-230.3" font-family="Times,serif" font-size="14.00">show</text>
<polyline fill="none" stroke="black" points="112,-222.5 231,-222.5 "/>
<polyline fill="none" stroke="black" points="112,-198.5 231,-198.5 "/>
<text text-anchor="start" x="120" y="-183.3" font-family="Times,serif" font-size="14.00">_layout</text>
<text text-anchor="start" x="120" y="-168.3" font-family="Times,serif" font-size="14.00">contact_params</text>
</g>
<!-- SessionsController -->
<g id="node16" class="node"><title>SessionsController</title>
<path fill="none" stroke="black" d="M652,-400.5C652,-400.5 747,-400.5 747,-400.5 753,-400.5 759,-406.5 759,-412.5 759,-412.5 759,-526.5 759,-526.5 759,-532.5 753,-538.5 747,-538.5 747,-538.5 652,-538.5 652,-538.5 646,-538.5 640,-532.5 640,-526.5 640,-526.5 640,-412.5 640,-412.5 640,-406.5 646,-400.5 652,-400.5"/>
<text text-anchor="middle" x="699.5" y="-523.3" font-family="Times,serif" font-size="14.00">SessionsController</text>
<polyline fill="none" stroke="black" points="640,-515.5 759,-515.5 "/>
<text text-anchor="start" x="648" y="-500.3" font-family="Times,serif" font-size="14.00">create</text>
<text text-anchor="start" x="648" y="-485.3" font-family="Times,serif" font-size="14.00">current_user=</text>
<text text-anchor="start" x="648" y="-470.3" font-family="Times,serif" font-size="14.00">destroy</text>
<text text-anchor="start" x="648" y="-455.3" font-family="Times,serif" font-size="14.00">new</text>
<polyline fill="none" stroke="black" points="640,-447.5 759,-447.5 "/>
<polyline fill="none" stroke="black" points="640,-423.5 759,-423.5 "/>
<text text-anchor="start" x="648" y="-408.3" font-family="Times,serif" font-size="14.00">_layout</text>
</g>
</g>
</svg>
