<?xml version="1.0" encoding="UTF-8" standalone="no"?>
<!DOCTYPE svg PUBLIC "-//W3C//DTD SVG 1.1//EN"
 "http://www.w3.org/Graphics/SVG/1.1/DTD/svg11.dtd">
<!-- Generated by graphviz version 2.36.0 (20140111.2315)
 -->
<!-- Title: models_diagram Pages: 1 -->
<svg width="620pt" height="302pt"
 viewBox="0.00 0.00 620.00 302.00" xmlns="http://www.w3.org/2000/svg" xmlns:xlink="http://www.w3.org/1999/xlink">
<g id="graph0" class="graph" transform="scale(1 1) rotate(0) translate(4 298)">
<title>models_diagram</title>
<polygon fill="none" stroke="none" points="-4,4 -4,-298 616,-298 616,4 -4,4"/>
<!-- _diagram_info -->
<g id="node1" class="node"><title>_diagram_info</title>
<text text-anchor="start" x="7" y="-279.6" font-family="Times,serif" font-size="13.00">Models diagram</text>
<text text-anchor="start" x="7" y="-265.6" font-family="Times,serif" font-size="13.00">Date: Dec 02 2015 &#45; 21:06</text>
<text text-anchor="start" x="7" y="-251.6" font-family="Times,serif" font-size="13.00">Migration version: 20151116171559</text>
<text text-anchor="start" x="7" y="-237.6" font-family="Times,serif" font-size="13.00">Generated by RailRoady 1.4.1</text>
<text text-anchor="start" x="7" y="-223.6" font-family="Times,serif" font-size="13.00">http://railroady.prestonlee.com</text>
</g>
<!-- Bar -->
<g id="node2" class="node"><title>Bar</title>
<ellipse fill="none" stroke="black" cx="349" cy="-255" rx="27" ry="18"/>
<text text-anchor="middle" x="349" y="-251.3" font-family="Times,serif" font-size="14.00">Bar</text>
</g>
<!-- Deal -->
<g id="node7" class="node"><title>Deal</title>
<ellipse fill="none" stroke="black" cx="252" cy="-162" rx="26.949" ry="18"/>
<text text-anchor="middle" x="252" y="-158.3" font-family="Times,serif" font-size="14.00">Deal</text>
</g>
<!-- Bar&#45;&gt;Deal -->
<g id="edge2" class="edge"><title>Bar&#45;&gt;Deal</title>
<path fill="none" stroke="#2f86cf" d="M327.94,-234.243C312.156,-219.435 290.591,-199.204 274.475,-184.085"/>
<ellipse fill="none" stroke="#2f86cf" cx="330.927" cy="-237.044" rx="4.00002" ry="4.00002"/>
<polygon fill="#2f86cf" stroke="#2f86cf" points="274.343,-183.961 270.129,-173.837 270.696,-180.54 267.05,-177.119 267.05,-177.119 267.05,-177.119 270.696,-180.54 263.971,-180.401 274.343,-183.961 274.343,-183.961"/>
</g>
<!-- ContactDetail -->
<g id="node8" class="node"><title>ContactDetail</title>
<ellipse fill="none" stroke="black" cx="357" cy="-162" rx="59.1941" ry="18"/>
<text text-anchor="middle" x="357" y="-158.3" font-family="Times,serif" font-size="14.00">ContactDetail</text>
</g>
<!-- Bar&#45;&gt;ContactDetail -->
<g id="edge1" class="edge"><title>Bar&#45;&gt;ContactDetail</title>
<path fill="none" stroke="#cc57e7" d="M351.222,-228.729C352.33,-216.118 353.668,-200.905 354.776,-188.292"/>
<ellipse fill="none" stroke="#cc57e7" cx="350.855" cy="-232.899" rx="4" ry="4"/>
<ellipse fill="#cc57e7" stroke="#cc57e7" cx="355.152" cy="-184.024" rx="4" ry="4"/>
</g>
<!-- FriendStatus -->
<g id="node3" class="node"><title>FriendStatus</title>
<ellipse fill="none" stroke="black" cx="462" cy="-255" rx="55.3682" ry="18"/>
<text text-anchor="middle" x="462" y="-251.3" font-family="Times,serif" font-size="14.00">FriendStatus</text>
</g>
<!-- User -->
<g id="node6" class="node"><title>User</title>
<ellipse fill="none" stroke="black" cx="462" cy="-162" rx="26.949" ry="18"/>
<text text-anchor="middle" x="462" y="-158.3" font-family="Times,serif" font-size="14.00">User</text>
</g>
<!-- FriendStatus&#45;&gt;User -->
<g id="edge3" class="edge"><title>FriendStatus&#45;&gt;User</title>
<path fill="none" stroke="#27c2ca" d="M462,-226.549C462,-215.083 462,-201.792 462,-190.339"/>
<polygon fill="#27c2ca" stroke="#27c2ca" points="462,-226.884 457.5,-236.884 462,-231.884 462,-236.884 462,-236.884 462,-236.884 462,-231.884 466.5,-236.884 462,-226.884 462,-226.884"/>
<polygon fill="#27c2ca" stroke="#27c2ca" points="462,-190.04 466.5,-180.04 462,-185.04 462,-180.04 462,-180.04 462,-180.04 462,-185.04 457.5,-180.04 462,-190.04 462,-190.04"/>
</g>
<!-- Friendlist -->
<g id="node4" class="node"><title>Friendlist</title>
<ellipse fill="none" stroke="black" cx="462" cy="-90" rx="44.2946" ry="18"/>
<text text-anchor="middle" x="462" y="-86.3" font-family="Times,serif" font-size="14.00">Friendlist</text>
</g>
<!-- Friend -->
<g id="node12" class="node"><title>Friend</title>
<ellipse fill="none" stroke="black" cx="462" cy="-18" rx="33.1991" ry="18"/>
<text text-anchor="middle" x="462" y="-14.3" font-family="Times,serif" font-size="14.00">Friend</text>
</g>
<!-- Friendlist&#45;&gt;Friend -->
<g id="edge4" class="edge"><title>Friendlist&#45;&gt;Friend</title>
<path fill="none" stroke="#0a859f" d="M462,-63.6398C462,-58.0629 462,-52.1319 462,-46.4761"/>
<ellipse fill="none" stroke="#0a859f" cx="462" cy="-67.6966" rx="4" ry="4"/>
<polygon fill="#0a859f" stroke="#0a859f" points="462,-46.1043 466.5,-36.1043 462,-41.1043 462,-36.1043 462,-36.1043 462,-36.1043 462,-41.1043 457.5,-36.1044 462,-46.1043 462,-46.1043"/>
</g>
<!-- Collection -->
<g id="node5" class="node"><title>Collection</title>
<ellipse fill="none" stroke="black" cx="349" cy="-90" rx="47.169" ry="18"/>
<text text-anchor="middle" x="349" y="-86.3" font-family="Times,serif" font-size="14.00">Collection</text>
</g>
<!-- Review -->
<g id="node13" class="node"><title>Review</title>
<ellipse fill="none" stroke="black" cx="301" cy="-18" rx="37.5442" ry="18"/>
<text text-anchor="middle" x="301" y="-14.3" font-family="Times,serif" font-size="14.00">Review</text>
</g>
<!-- Collection&#45;&gt;Review -->
<g id="edge5" class="edge"><title>Collection&#45;&gt;Review</title>
<path fill="none" stroke="#8245e3" d="M333.1,-65.8123C328.312,-58.8305 323.038,-51.1383 318.172,-44.0419"/>
<ellipse fill="none" stroke="#8245e3" cx="335.363" cy="-69.1121" rx="4.00002" ry="4.00002"/>
<polygon fill="#8245e3" stroke="#8245e3" points="317.949,-43.7173 316.005,-32.9251 315.121,-39.5936 312.294,-35.4699 312.294,-35.4699 312.294,-35.4699 315.121,-39.5936 308.582,-38.0148 317.949,-43.7173 317.949,-43.7173"/>
</g>
<!-- User&#45;&gt;Friendlist -->
<g id="edge7" class="edge"><title>User&#45;&gt;Friendlist</title>
<path fill="none" stroke="#b3cb1e" d="M462,-135.64C462,-129.348 462,-122.605 462,-116.316"/>
<ellipse fill="none" stroke="#b3cb1e" cx="462" cy="-139.697" rx="4" ry="4"/>
<ellipse fill="#b3cb1e" stroke="#b3cb1e" cx="462" cy="-112.104" rx="4" ry="4"/>
</g>
<!-- User&#45;&gt;Collection -->
<g id="edge6" class="edge"><title>User&#45;&gt;Collection</title>
<path fill="none" stroke="#98ab91" d="M435.86,-144.807C419.143,-134.451 397.381,-120.97 379.822,-110.093"/>
<ellipse fill="none" stroke="#98ab91" cx="439.431" cy="-147.019" rx="4.00002" ry="4.00002"/>
<ellipse fill="#98ab91" stroke="#98ab91" cx="375.981" cy="-107.714" rx="4.00002" ry="4.00002"/>
</g>
<!-- Beer -->
<g id="node11" class="node"><title>Beer</title>
<ellipse fill="none" stroke="black" cx="252" cy="-90" rx="26.949" ry="18"/>
<text text-anchor="middle" x="252" y="-86.3" font-family="Times,serif" font-size="14.00">Beer</text>
</g>
<!-- Deal&#45;&gt;Beer -->
<g id="edge8" class="edge"><title>Deal&#45;&gt;Beer</title>
<path fill="none" stroke="#28f4a5" d="M252,-135.64C252,-129.348 252,-122.605 252,-116.316"/>
<ellipse fill="none" stroke="#28f4a5" cx="252" cy="-139.697" rx="4" ry="4"/>
<ellipse fill="#28f4a5" stroke="#28f4a5" cx="252" cy="-112.104" rx="4" ry="4"/>
</g>
<!-- BeerCategory -->
<g id="node9" class="node"><title>BeerCategory</title>
<ellipse fill="none" stroke="black" cx="147" cy="-162" rx="59.1941" ry="18"/>
<text text-anchor="middle" x="147" y="-158.3" font-family="Times,serif" font-size="14.00">BeerCategory</text>
</g>
<!-- BeerCategory&#45;&gt;Beer -->
<g id="edge9" class="edge"><title>BeerCategory&#45;&gt;Beer</title>
<path fill="none" stroke="#9076bb" d="M177.515,-140.657C192.491,-130.673 210.38,-118.747 224.873,-109.085"/>
<ellipse fill="none" stroke="#9076bb" cx="173.892" cy="-143.072" rx="4.00002" ry="4.00002"/>
<polygon fill="#9076bb" stroke="#9076bb" points="225.08,-108.946 235.897,-107.144 229.241,-106.173 233.401,-103.399 233.401,-103.399 233.401,-103.399 229.241,-106.173 230.905,-99.6551 225.08,-108.946 225.08,-108.946"/>
</g>
<!-- Contact -->
<g id="node10" class="node"><title>Contact</title>
<ellipse fill="none" stroke="black" cx="574" cy="-255" rx="38.0212" ry="18"/>
<text text-anchor="middle" x="574" y="-251.3" font-family="Times,serif" font-size="14.00">Contact</text>
</g>
<!-- Beer&#45;&gt;Review -->
<g id="edge10" class="edge"><title>Beer&#45;&gt;Review</title>
<path fill="none" stroke="#ab72d8" d="M267.572,-66.7546C272.678,-59.4607 278.383,-51.3106 283.614,-43.8374"/>
<ellipse fill="none" stroke="#ab72d8" cx="265.169" cy="-70.1878" rx="4.00002" ry="4.00002"/>
<polygon fill="#ab72d8" stroke="#ab72d8" points="283.738,-43.6595 293.16,-38.0478 286.606,-39.5633 289.473,-35.4672 289.473,-35.4672 289.473,-35.4672 286.606,-39.5633 285.786,-32.8866 283.738,-43.6595 283.738,-43.6595"/>
</g>
<!-- Shop -->
<g id="node14" class="node"><title>Shop</title>
<ellipse fill="none" stroke="black" cx="260" cy="-255" rx="28.3955" ry="18"/>
<text text-anchor="middle" x="260" y="-251.3" font-family="Times,serif" font-size="14.00">Shop</text>
</g>
<!-- Shop&#45;&gt;Deal -->
<g id="edge12" class="edge"><title>Shop&#45;&gt;Deal</title>
<path fill="none" stroke="#4d9b34" d="M257.778,-228.729C256.723,-216.725 255.46,-202.362 254.385,-190.129"/>
<ellipse fill="none" stroke="#4d9b34" cx="258.145" cy="-232.899" rx="4" ry="4"/>
<polygon fill="#4d9b34" stroke="#4d9b34" points="254.374,-190.001 257.981,-179.646 253.936,-185.02 253.498,-180.04 253.498,-180.04 253.498,-180.04 253.936,-185.02 249.015,-180.434 254.374,-190.001 254.374,-190.001"/>
</g>
<!-- Shop&#45;&gt;ContactDetail -->
<g id="edge11" class="edge"><title>Shop&#45;&gt;ContactDetail</title>
<path fill="none" stroke="#f094a7" d="M281.265,-234.051C296.729,-219.543 317.661,-199.906 333.599,-184.953"/>
<ellipse fill="none" stroke="#f094a7" cx="278.073" cy="-237.044" rx="4.00002" ry="4.00002"/>
<ellipse fill="#f094a7" stroke="#f094a7" cx="336.741" cy="-182.006" rx="4.00002" ry="4.00002"/>
</g>
</g>
</svg>
