<?xml version="1.0" encoding="UTF-8" standalone="no"?>
<!DOCTYPE svg PUBLIC "-//W3C//DTD SVG 1.1//EN"
 "http://www.w3.org/Graphics/SVG/1.1/DTD/svg11.dtd">
<!-- Generated by graphviz version 2.36.0 (20140111.2315)
 -->
<!-- Title: models_diagram Pages: 1 -->
<svg width="870pt" height="802pt"
 viewBox="0.00 0.00 870.00 802.00" xmlns="http://www.w3.org/2000/svg" xmlns:xlink="http://www.w3.org/1999/xlink">
<g id="graph0" class="graph" transform="scale(1 1) rotate(0) translate(4 798)">
<title>models_diagram</title>
<polygon fill="none" stroke="none" points="-4,4 -4,-798 866,-798 866,4 -4,4"/>
<!-- _diagram_info -->
<g id="node1" class="node"><title>_diagram_info</title>
<text text-anchor="start" x="7" y="-749.6" font-family="Times,serif" font-size="13.00">Models diagram</text>
<text text-anchor="start" x="7" y="-735.6" font-family="Times,serif" font-size="13.00">Date: Dec 02 2015 &#45; 21:06</text>
<text text-anchor="start" x="7" y="-721.6" font-family="Times,serif" font-size="13.00">Migration version: 20151116171559</text>
<text text-anchor="start" x="7" y="-707.6" font-family="Times,serif" font-size="13.00">Generated by RailRoady 1.4.1</text>
<text text-anchor="start" x="7" y="-693.6" font-family="Times,serif" font-size="13.00">http://railroady.prestonlee.com</text>
</g>
<!-- Bar -->
<g id="node2" class="node"><title>Bar</title>
<path fill="none" stroke="black" d="M403.5,-657C403.5,-657 510.5,-657 510.5,-657 516.5,-657 522.5,-663 522.5,-669 522.5,-669 522.5,-781 522.5,-781 522.5,-787 516.5,-793 510.5,-793 510.5,-793 403.5,-793 403.5,-793 397.5,-793 391.5,-787 391.5,-781 391.5,-781 391.5,-669 391.5,-669 391.5,-663 397.5,-657 403.5,-657"/>
<text text-anchor="middle" x="457" y="-777.8" font-family="Times,serif" font-size="14.00">Bar</text>
<polyline fill="none" stroke="black" points="391.5,-770 522.5,-770 "/>
<text text-anchor="start" x="399.5" y="-754.8" font-family="Times,serif" font-size="14.00">id :INTEGER</text>
<text text-anchor="start" x="399.5" y="-739.8" font-family="Times,serif" font-size="14.00">name :varchar</text>
<text text-anchor="start" x="399.5" y="-724.8" font-family="Times,serif" font-size="14.00">description :varchar</text>
<text text-anchor="start" x="399.5" y="-709.8" font-family="Times,serif" font-size="14.00">longitude :float</text>
<text text-anchor="start" x="399.5" y="-694.8" font-family="Times,serif" font-size="14.00">latitude :float</text>
<text text-anchor="start" x="399.5" y="-679.8" font-family="Times,serif" font-size="14.00">created_at :datetime</text>
<text text-anchor="start" x="399.5" y="-664.8" font-family="Times,serif" font-size="14.00">updated_at :datetime</text>
</g>
<!-- Deal -->
<g id="node7" class="node"><title>Deal</title>
<path fill="none" stroke="black" d="M226.5,-401C226.5,-401 355.5,-401 355.5,-401 361.5,-401 367.5,-407 367.5,-413 367.5,-413 367.5,-585 367.5,-585 367.5,-591 361.5,-597 355.5,-597 355.5,-597 226.5,-597 226.5,-597 220.5,-597 214.5,-591 214.5,-585 214.5,-585 214.5,-413 214.5,-413 214.5,-407 220.5,-401 226.5,-401"/>
<text text-anchor="middle" x="291" y="-581.8" font-family="Times,serif" font-size="14.00">Deal</text>
<polyline fill="none" stroke="black" points="214.5,-574 367.5,-574 "/>
<text text-anchor="start" x="222.5" y="-558.8" font-family="Times,serif" font-size="14.00">id :INTEGER</text>
<text text-anchor="start" x="222.5" y="-543.8" font-family="Times,serif" font-size="14.00">name :varchar</text>
<text text-anchor="start" x="222.5" y="-528.8" font-family="Times,serif" font-size="14.00">description :text</text>
<text text-anchor="start" x="222.5" y="-513.8" font-family="Times,serif" font-size="14.00">start_date :datetime</text>
<text text-anchor="start" x="222.5" y="-498.8" font-family="Times,serif" font-size="14.00">end_date :datetime</text>
<text text-anchor="start" x="222.5" y="-483.8" font-family="Times,serif" font-size="14.00">reference :integer</text>
<text text-anchor="start" x="222.5" y="-468.8" font-family="Times,serif" font-size="14.00">beer_place_id :integer</text>
<text text-anchor="start" x="222.5" y="-453.8" font-family="Times,serif" font-size="14.00">beer_place_type :varchar</text>
<text text-anchor="start" x="222.5" y="-438.8" font-family="Times,serif" font-size="14.00">beer_id :integer</text>
<text text-anchor="start" x="222.5" y="-423.8" font-family="Times,serif" font-size="14.00">created_at :datetime</text>
<text text-anchor="start" x="222.5" y="-408.8" font-family="Times,serif" font-size="14.00">updated_at :datetime</text>
</g>
<!-- Bar&#45;&gt;Deal -->
<g id="edge2" class="edge"><title>Bar&#45;&gt;Deal</title>
<path fill="none" stroke="#9d0867" d="M399.76,-650.224C392.055,-640.109 384.297,-629.826 377,-620 373.476,-615.254 369.889,-610.39 366.278,-605.466"/>
<ellipse fill="none" stroke="#9d0867" cx="402.382" cy="-653.661" rx="4.00002" ry="4.00002"/>
<polygon fill="#9d0867" stroke="#9d0867" points="366.09,-605.208 363.821,-594.48 363.139,-601.172 360.188,-597.136 360.188,-597.136 360.188,-597.136 363.139,-601.172 356.555,-599.791 366.09,-605.208 366.09,-605.208"/>
</g>
<!-- ContactDetail -->
<g id="node8" class="node"><title>ContactDetail</title>
<path fill="none" stroke="black" d="M397.5,-393.5C397.5,-393.5 526.5,-393.5 526.5,-393.5 532.5,-393.5 538.5,-399.5 538.5,-405.5 538.5,-405.5 538.5,-592.5 538.5,-592.5 538.5,-598.5 532.5,-604.5 526.5,-604.5 526.5,-604.5 397.5,-604.5 397.5,-604.5 391.5,-604.5 385.5,-598.5 385.5,-592.5 385.5,-592.5 385.5,-405.5 385.5,-405.5 385.5,-399.5 391.5,-393.5 397.5,-393.5"/>
<text text-anchor="middle" x="462" y="-589.3" font-family="Times,serif" font-size="14.00">ContactDetail</text>
<polyline fill="none" stroke="black" points="385.5,-581.5 538.5,-581.5 "/>
<text text-anchor="start" x="393.5" y="-566.3" font-family="Times,serif" font-size="14.00">id :INTEGER</text>
<text text-anchor="start" x="393.5" y="-551.3" font-family="Times,serif" font-size="14.00">telephone :varchar</text>
<text text-anchor="start" x="393.5" y="-536.3" font-family="Times,serif" font-size="14.00">website :varchar</text>
<text text-anchor="start" x="393.5" y="-521.3" font-family="Times,serif" font-size="14.00">street :varchar</text>
<text text-anchor="start" x="393.5" y="-506.3" font-family="Times,serif" font-size="14.00">number :varchar</text>
<text text-anchor="start" x="393.5" y="-491.3" font-family="Times,serif" font-size="14.00">zipcode :varchar</text>
<text text-anchor="start" x="393.5" y="-476.3" font-family="Times,serif" font-size="14.00">city :varchar</text>
<text text-anchor="start" x="393.5" y="-461.3" font-family="Times,serif" font-size="14.00">country :varchar</text>
<text text-anchor="start" x="393.5" y="-446.3" font-family="Times,serif" font-size="14.00">beer_place_id :integer</text>
<text text-anchor="start" x="393.5" y="-431.3" font-family="Times,serif" font-size="14.00">beer_place_type :varchar</text>
<text text-anchor="start" x="393.5" y="-416.3" font-family="Times,serif" font-size="14.00">created_at :datetime</text>
<text text-anchor="start" x="393.5" y="-401.3" font-family="Times,serif" font-size="14.00">updated_at :datetime</text>
</g>
<!-- Bar&#45;&gt;ContactDetail -->
<g id="edge1" class="edge"><title>Bar&#45;&gt;ContactDetail</title>
<path fill="none" stroke="#7bdb55" d="M458.683,-648.622C458.938,-637.198 459.205,-625.202 459.473,-613.189"/>
<ellipse fill="none" stroke="#7bdb55" cx="458.589" cy="-652.794" rx="4" ry="4"/>
<ellipse fill="#7bdb55" stroke="#7bdb55" cx="459.57" cy="-608.874" rx="4" ry="4"/>
</g>
<!-- FriendStatus -->
<g id="node3" class="node"><title>FriendStatus</title>
<path fill="none" stroke="black" d="M594.5,-664.5C594.5,-664.5 701.5,-664.5 701.5,-664.5 707.5,-664.5 713.5,-670.5 713.5,-676.5 713.5,-676.5 713.5,-773.5 713.5,-773.5 713.5,-779.5 707.5,-785.5 701.5,-785.5 701.5,-785.5 594.5,-785.5 594.5,-785.5 588.5,-785.5 582.5,-779.5 582.5,-773.5 582.5,-773.5 582.5,-676.5 582.5,-676.5 582.5,-670.5 588.5,-664.5 594.5,-664.5"/>
<text text-anchor="middle" x="648" y="-770.3" font-family="Times,serif" font-size="14.00">FriendStatus</text>
<polyline fill="none" stroke="black" points="582.5,-762.5 713.5,-762.5 "/>
<text text-anchor="start" x="590.5" y="-747.3" font-family="Times,serif" font-size="14.00">id :INTEGER</text>
<text text-anchor="start" x="590.5" y="-732.3" font-family="Times,serif" font-size="14.00">status :varchar</text>
<text text-anchor="start" x="590.5" y="-717.3" font-family="Times,serif" font-size="14.00">users_id :integer</text>
<text text-anchor="start" x="590.5" y="-702.3" font-family="Times,serif" font-size="14.00">friends_id :integer</text>
<text text-anchor="start" x="590.5" y="-687.3" font-family="Times,serif" font-size="14.00">created_at :datetime</text>
<text text-anchor="start" x="590.5" y="-672.3" font-family="Times,serif" font-size="14.00">updated_at :datetime</text>
</g>
<!-- User -->
<g id="node6" class="node"><title>User</title>
<path fill="none" stroke="black" d="M568.5,-378.5C568.5,-378.5 727.5,-378.5 727.5,-378.5 733.5,-378.5 739.5,-384.5 739.5,-390.5 739.5,-390.5 739.5,-607.5 739.5,-607.5 739.5,-613.5 733.5,-619.5 727.5,-619.5 727.5,-619.5 568.5,-619.5 568.5,-619.5 562.5,-619.5 556.5,-613.5 556.5,-607.5 556.5,-607.5 556.5,-390.5 556.5,-390.5 556.5,-384.5 562.5,-378.5 568.5,-378.5"/>
<text text-anchor="middle" x="648" y="-604.3" font-family="Times,serif" font-size="14.00">User</text>
<polyline fill="none" stroke="black" points="556.5,-596.5 739.5,-596.5 "/>
<text text-anchor="start" x="564.5" y="-581.3" font-family="Times,serif" font-size="14.00">id :INTEGER</text>
<text text-anchor="start" x="564.5" y="-566.3" font-family="Times,serif" font-size="14.00">login :varchar</text>
<text text-anchor="start" x="564.5" y="-551.3" font-family="Times,serif" font-size="14.00">password :varchar</text>
<text text-anchor="start" x="564.5" y="-536.3" font-family="Times,serif" font-size="14.00">salt :varchar</text>
<text text-anchor="start" x="564.5" y="-521.3" font-family="Times,serif" font-size="14.00">email :varchar</text>
<text text-anchor="start" x="564.5" y="-506.3" font-family="Times,serif" font-size="14.00">firstName :varchar</text>
<text text-anchor="start" x="564.5" y="-491.3" font-family="Times,serif" font-size="14.00">lastName :varchar</text>
<text text-anchor="start" x="564.5" y="-476.3" font-family="Times,serif" font-size="14.00">birthday :date</text>
<text text-anchor="start" x="564.5" y="-461.3" font-family="Times,serif" font-size="14.00">admin :boolean</text>
<text text-anchor="start" x="564.5" y="-446.3" font-family="Times,serif" font-size="14.00">password_reset :varchar</text>
<text text-anchor="start" x="564.5" y="-431.3" font-family="Times,serif" font-size="14.00">password_reset_sent :datetime</text>
<text text-anchor="start" x="564.5" y="-416.3" font-family="Times,serif" font-size="14.00">created_at :datetime</text>
<text text-anchor="start" x="564.5" y="-401.3" font-family="Times,serif" font-size="14.00">updated_at :datetime</text>
<text text-anchor="start" x="564.5" y="-386.3" font-family="Times,serif" font-size="14.00">visibility :varchar</text>
</g>
<!-- FriendStatus&#45;&gt;User -->
<g id="edge3" class="edge"><title>FriendStatus&#45;&gt;User</title>
<path fill="none" stroke="#3e3bef" d="M648,-653.965C648,-646.172 648,-638.061 648,-629.819"/>
<polygon fill="#3e3bef" stroke="#3e3bef" points="648,-654.266 643.5,-664.266 648,-659.266 648,-664.266 648,-664.266 648,-664.266 648,-659.266 652.5,-664.266 648,-654.266 648,-654.266"/>
<polygon fill="#3e3bef" stroke="#3e3bef" points="648,-629.711 652.5,-619.711 648,-624.711 648,-619.711 648,-619.711 648,-619.711 648,-624.711 643.5,-619.711 648,-629.711 648,-629.711"/>
</g>
<!-- Friendlist -->
<g id="node4" class="node"><title>Friendlist</title>
<path fill="none" stroke="black" d="M594.5,-212.5C594.5,-212.5 701.5,-212.5 701.5,-212.5 707.5,-212.5 713.5,-218.5 713.5,-224.5 713.5,-224.5 713.5,-291.5 713.5,-291.5 713.5,-297.5 707.5,-303.5 701.5,-303.5 701.5,-303.5 594.5,-303.5 594.5,-303.5 588.5,-303.5 582.5,-297.5 582.5,-291.5 582.5,-291.5 582.5,-224.5 582.5,-224.5 582.5,-218.5 588.5,-212.5 594.5,-212.5"/>
<text text-anchor="middle" x="648" y="-288.3" font-family="Times,serif" font-size="14.00">Friendlist</text>
<polyline fill="none" stroke="black" points="582.5,-280.5 713.5,-280.5 "/>
<text text-anchor="start" x="590.5" y="-265.3" font-family="Times,serif" font-size="14.00">id :INTEGER</text>
<text text-anchor="start" x="590.5" y="-250.3" font-family="Times,serif" font-size="14.00">user_id :integer</text>
<text text-anchor="start" x="590.5" y="-235.3" font-family="Times,serif" font-size="14.00">created_at :datetime</text>
<text text-anchor="start" x="590.5" y="-220.3" font-family="Times,serif" font-size="14.00">updated_at :datetime</text>
</g>
<!-- Friend -->
<g id="node12" class="node"><title>Friend</title>
<path fill="none" stroke="black" d="M594.5,-16C594.5,-16 701.5,-16 701.5,-16 707.5,-16 713.5,-22 713.5,-28 713.5,-28 713.5,-110 713.5,-110 713.5,-116 707.5,-122 701.5,-122 701.5,-122 594.5,-122 594.5,-122 588.5,-122 582.5,-116 582.5,-110 582.5,-110 582.5,-28 582.5,-28 582.5,-22 588.5,-16 594.5,-16"/>
<text text-anchor="middle" x="648" y="-106.8" font-family="Times,serif" font-size="14.00">Friend</text>
<polyline fill="none" stroke="black" points="582.5,-99 713.5,-99 "/>
<text text-anchor="start" x="590.5" y="-83.8" font-family="Times,serif" font-size="14.00">id :INTEGER</text>
<text text-anchor="start" x="590.5" y="-68.8" font-family="Times,serif" font-size="14.00">user_id :integer</text>
<text text-anchor="start" x="590.5" y="-53.8" font-family="Times,serif" font-size="14.00">friendlist_id :integer</text>
<text text-anchor="start" x="590.5" y="-38.8" font-family="Times,serif" font-size="14.00">created_at :datetime</text>
<text text-anchor="start" x="590.5" y="-23.8" font-family="Times,serif" font-size="14.00">updated_at :datetime</text>
</g>
<!-- Friendlist&#45;&gt;Friend -->
<g id="edge4" class="edge"><title>Friendlist&#45;&gt;Friend</title>
<path fill="none" stroke="#aadf30" d="M648,-204.059C648,-181.682 648,-155.459 648,-132.169"/>
<ellipse fill="none" stroke="#aadf30" cx="648" cy="-208.209" rx="4" ry="4"/>
<polygon fill="#aadf30" stroke="#aadf30" points="648,-132.044 652.5,-122.044 648,-127.044 648,-122.044 648,-122.044 648,-122.044 648,-127.044 643.5,-122.044 648,-132.044 648,-132.044"/>
</g>
<!-- Collection -->
<g id="node5" class="node"><title>Collection</title>
<path fill="none" stroke="black" d="M445.5,-212.5C445.5,-212.5 552.5,-212.5 552.5,-212.5 558.5,-212.5 564.5,-218.5 564.5,-224.5 564.5,-224.5 564.5,-291.5 564.5,-291.5 564.5,-297.5 558.5,-303.5 552.5,-303.5 552.5,-303.5 445.5,-303.5 445.5,-303.5 439.5,-303.5 433.5,-297.5 433.5,-291.5 433.5,-291.5 433.5,-224.5 433.5,-224.5 433.5,-218.5 439.5,-212.5 445.5,-212.5"/>
<text text-anchor="middle" x="499" y="-288.3" font-family="Times,serif" font-size="14.00">Collection</text>
<polyline fill="none" stroke="black" points="433.5,-280.5 564.5,-280.5 "/>
<text text-anchor="start" x="441.5" y="-265.3" font-family="Times,serif" font-size="14.00">id :INTEGER</text>
<text text-anchor="start" x="441.5" y="-250.3" font-family="Times,serif" font-size="14.00">user_id :integer</text>
<text text-anchor="start" x="441.5" y="-235.3" font-family="Times,serif" font-size="14.00">created_at :datetime</text>
<text text-anchor="start" x="441.5" y="-220.3" font-family="Times,serif" font-size="14.00">updated_at :datetime</text>
</g>
<!-- Review -->
<g id="node13" class="node"><title>Review</title>
<path fill="none" stroke="black" d="M341,-1C341,-1 449,-1 449,-1 455,-1 461,-7 461,-13 461,-13 461,-125 461,-125 461,-131 455,-137 449,-137 449,-137 341,-137 341,-137 335,-137 329,-131 329,-125 329,-125 329,-13 329,-13 329,-7 335,-1 341,-1"/>
<text text-anchor="middle" x="395" y="-121.8" font-family="Times,serif" font-size="14.00">Review</text>
<polyline fill="none" stroke="black" points="329,-114 461,-114 "/>
<text text-anchor="start" x="337" y="-98.8" font-family="Times,serif" font-size="14.00">id :INTEGER</text>
<text text-anchor="start" x="337" y="-83.8" font-family="Times,serif" font-size="14.00">note :float</text>
<text text-anchor="start" x="337" y="-68.8" font-family="Times,serif" font-size="14.00">comment :text</text>
<text text-anchor="start" x="337" y="-53.8" font-family="Times,serif" font-size="14.00">collection_id :integer</text>
<text text-anchor="start" x="337" y="-38.8" font-family="Times,serif" font-size="14.00">beer_id :integer</text>
<text text-anchor="start" x="337" y="-23.8" font-family="Times,serif" font-size="14.00">created_at :datetime</text>
<text text-anchor="start" x="337" y="-8.8" font-family="Times,serif" font-size="14.00">updated_at :datetime</text>
</g>
<!-- Collection&#45;&gt;Review -->
<g id="edge5" class="edge"><title>Collection&#45;&gt;Review</title>
<path fill="none" stroke="#947f77" d="M470.196,-205.208C459.989,-186.855 448.282,-165.805 437.193,-145.865"/>
<ellipse fill="none" stroke="#947f77" cx="472.145" cy="-208.713" rx="4.00002" ry="4.00002"/>
<polygon fill="#947f77" stroke="#947f77" points="437.177,-145.838 436.25,-134.911 434.747,-141.468 432.317,-137.099 432.317,-137.099 432.317,-137.099 434.747,-141.468 428.384,-139.286 437.177,-145.838 437.177,-145.838"/>
</g>
<!-- User&#45;&gt;Friendlist -->
<g id="edge7" class="edge"><title>User&#45;&gt;Friendlist</title>
<path fill="none" stroke="#7d99db" d="M648,-370.03C648,-349.482 648,-329.271 648,-311.841"/>
<ellipse fill="none" stroke="#7d99db" cx="648" cy="-374.15" rx="4" ry="4"/>
<ellipse fill="#7d99db" stroke="#7d99db" cx="648" cy="-307.519" rx="4" ry="4"/>
</g>
<!-- User&#45;&gt;Collection -->
<g id="edge6" class="edge"><title>User&#45;&gt;Collection</title>
<path fill="none" stroke="#eb2973" d="M568.997,-371.277C555.601,-349.79 542.4,-328.614 531.134,-310.544"/>
<ellipse fill="none" stroke="#eb2973" cx="571.166" cy="-374.756" rx="4.00002" ry="4.00002"/>
<ellipse fill="#eb2973" stroke="#eb2973" cx="528.871" cy="-306.913" rx="4.00002" ry="4.00002"/>
</g>
<!-- Beer -->
<g id="node11" class="node"><title>Beer</title>
<path fill="none" stroke="black" d="M225.5,-175C225.5,-175 356.5,-175 356.5,-175 362.5,-175 368.5,-181 368.5,-187 368.5,-187 368.5,-329 368.5,-329 368.5,-335 362.5,-341 356.5,-341 356.5,-341 225.5,-341 225.5,-341 219.5,-341 213.5,-335 213.5,-329 213.5,-329 213.5,-187 213.5,-187 213.5,-181 219.5,-175 225.5,-175"/>
<text text-anchor="middle" x="291" y="-325.8" font-family="Times,serif" font-size="14.00">Beer</text>
<polyline fill="none" stroke="black" points="213.5,-318 368.5,-318 "/>
<text text-anchor="start" x="221.5" y="-302.8" font-family="Times,serif" font-size="14.00">id :INTEGER</text>
<text text-anchor="start" x="221.5" y="-287.8" font-family="Times,serif" font-size="14.00">name :varchar</text>
<text text-anchor="start" x="221.5" y="-272.8" font-family="Times,serif" font-size="14.00">degree :float</text>
<text text-anchor="start" x="221.5" y="-257.8" font-family="Times,serif" font-size="14.00">description :text</text>
<text text-anchor="start" x="221.5" y="-242.8" font-family="Times,serif" font-size="14.00">story :text</text>
<text text-anchor="start" x="221.5" y="-227.8" font-family="Times,serif" font-size="14.00">confirmed :boolean</text>
<text text-anchor="start" x="221.5" y="-212.8" font-family="Times,serif" font-size="14.00">beer_category_id :integer</text>
<text text-anchor="start" x="221.5" y="-197.8" font-family="Times,serif" font-size="14.00">created_at :datetime</text>
<text text-anchor="start" x="221.5" y="-182.8" font-family="Times,serif" font-size="14.00">updated_at :datetime</text>
</g>
<!-- Deal&#45;&gt;Beer -->
<g id="edge8" class="edge"><title>Deal&#45;&gt;Beer</title>
<path fill="none" stroke="#eb4edb" d="M291,-392.404C291,-378.061 291,-363.447 291,-349.404"/>
<ellipse fill="none" stroke="#eb4edb" cx="291" cy="-396.79" rx="4" ry="4"/>
<ellipse fill="#eb4edb" stroke="#eb4edb" cx="291" cy="-345.208" rx="4" ry="4"/>
</g>
<!-- BeerCategory -->
<g id="node9" class="node"><title>BeerCategory</title>
<path fill="none" stroke="black" d="M77.5,-446C77.5,-446 184.5,-446 184.5,-446 190.5,-446 196.5,-452 196.5,-458 196.5,-458 196.5,-540 196.5,-540 196.5,-546 190.5,-552 184.5,-552 184.5,-552 77.5,-552 77.5,-552 71.5,-552 65.5,-546 65.5,-540 65.5,-540 65.5,-458 65.5,-458 65.5,-452 71.5,-446 77.5,-446"/>
<text text-anchor="middle" x="131" y="-536.8" font-family="Times,serif" font-size="14.00">BeerCategory</text>
<polyline fill="none" stroke="black" points="65.5,-529 196.5,-529 "/>
<text text-anchor="start" x="73.5" y="-513.8" font-family="Times,serif" font-size="14.00">id :INTEGER</text>
<text text-anchor="start" x="73.5" y="-498.8" font-family="Times,serif" font-size="14.00">name :varchar</text>
<text text-anchor="start" x="73.5" y="-483.8" font-family="Times,serif" font-size="14.00">description :varchar</text>
<text text-anchor="start" x="73.5" y="-468.8" font-family="Times,serif" font-size="14.00">created_at :datetime</text>
<text text-anchor="start" x="73.5" y="-453.8" font-family="Times,serif" font-size="14.00">updated_at :datetime</text>
</g>
<!-- BeerCategory&#45;&gt;Beer -->
<g id="edge9" class="edge"><title>BeerCategory&#45;&gt;Beer</title>
<path fill="none" stroke="#e54d5c" d="M166.844,-439.043C179.018,-419.455 192.867,-397.638 206,-378 212.222,-368.696 218.822,-359.067 225.485,-349.501"/>
<ellipse fill="none" stroke="#e54d5c" cx="164.719" cy="-442.471" rx="4.00002" ry="4.00002"/>
<polygon fill="#e54d5c" stroke="#e54d5c" points="225.615,-349.315 235.035,-343.701 228.482,-345.218 231.348,-341.121 231.348,-341.121 231.348,-341.121 228.482,-345.218 227.661,-338.541 225.615,-349.315 225.615,-349.315"/>
</g>
<!-- Contact -->
<g id="node10" class="node"><title>Contact</title>
<path fill="none" stroke="black" d="M743.5,-664.5C743.5,-664.5 850.5,-664.5 850.5,-664.5 856.5,-664.5 862.5,-670.5 862.5,-676.5 862.5,-676.5 862.5,-773.5 862.5,-773.5 862.5,-779.5 856.5,-785.5 850.5,-785.5 850.5,-785.5 743.5,-785.5 743.5,-785.5 737.5,-785.5 731.5,-779.5 731.5,-773.5 731.5,-773.5 731.5,-676.5 731.5,-676.5 731.5,-670.5 737.5,-664.5 743.5,-664.5"/>
<text text-anchor="middle" x="797" y="-770.3" font-family="Times,serif" font-size="14.00">Contact</text>
<polyline fill="none" stroke="black" points="731.5,-762.5 862.5,-762.5 "/>
<text text-anchor="start" x="739.5" y="-747.3" font-family="Times,serif" font-size="14.00">id :INTEGER</text>
<text text-anchor="start" x="739.5" y="-732.3" font-family="Times,serif" font-size="14.00">email :varchar</text>
<text text-anchor="start" x="739.5" y="-717.3" font-family="Times,serif" font-size="14.00">subject :text</text>
<text text-anchor="start" x="739.5" y="-702.3" font-family="Times,serif" font-size="14.00">content :text</text>
<text text-anchor="start" x="739.5" y="-687.3" font-family="Times,serif" font-size="14.00">created_at :datetime</text>
<text text-anchor="start" x="739.5" y="-672.3" font-family="Times,serif" font-size="14.00">updated_at :datetime</text>
</g>
<!-- Beer&#45;&gt;Review -->
<g id="edge10" class="edge"><title>Beer&#45;&gt;Review</title>
<path fill="none" stroke="#6ba729" d="M340.589,-167.834C344.635,-160.56 348.7,-153.251 352.686,-146.083"/>
<ellipse fill="none" stroke="#6ba729" cx="338.56" cy="-171.483" rx="4.00002" ry="4.00002"/>
<polygon fill="#6ba729" stroke="#6ba729" points="352.826,-145.833 361.619,-139.281 355.256,-141.463 357.686,-137.093 357.686,-137.093 357.686,-137.093 355.256,-141.463 353.753,-134.906 352.826,-145.833 352.826,-145.833"/>
</g>
<!-- Shop -->
<g id="node14" class="node"><title>Shop</title>
<path fill="none" stroke="black" d="M243.5,-657C243.5,-657 350.5,-657 350.5,-657 356.5,-657 362.5,-663 362.5,-669 362.5,-669 362.5,-781 362.5,-781 362.5,-787 356.5,-793 350.5,-793 350.5,-793 243.5,-793 243.5,-793 237.5,-793 231.5,-787 231.5,-781 231.5,-781 231.5,-669 231.5,-669 231.5,-663 237.5,-657 243.5,-657"/>
<text text-anchor="middle" x="297" y="-777.8" font-family="Times,serif" font-size="14.00">Shop</text>
<polyline fill="none" stroke="black" points="231.5,-770 362.5,-770 "/>
<text text-anchor="start" x="239.5" y="-754.8" font-family="Times,serif" font-size="14.00">id :INTEGER</text>
<text text-anchor="start" x="239.5" y="-739.8" font-family="Times,serif" font-size="14.00">name :varchar</text>
<text text-anchor="start" x="239.5" y="-724.8" font-family="Times,serif" font-size="14.00">description :varchar</text>
<text text-anchor="start" x="239.5" y="-709.8" font-family="Times,serif" font-size="14.00">longitude :float</text>
<text text-anchor="start" x="239.5" y="-694.8" font-family="Times,serif" font-size="14.00">latitude :float</text>
<text text-anchor="start" x="239.5" y="-679.8" font-family="Times,serif" font-size="14.00">created_at :datetime</text>
<text text-anchor="start" x="239.5" y="-664.8" font-family="Times,serif" font-size="14.00">updated_at :datetime</text>
</g>
<!-- Shop&#45;&gt;Deal -->
<g id="edge12" class="edge"><title>Shop&#45;&gt;Deal</title>
<path fill="none" stroke="#f69253" d="M294.974,-648.348C294.621,-635.179 294.248,-621.257 293.878,-607.428"/>
<ellipse fill="none" stroke="#f69253" cx="295.093" cy="-652.794" rx="4" ry="4"/>
<polygon fill="#f69253" stroke="#f69253" points="293.876,-607.383 298.107,-597.266 293.743,-602.385 293.609,-597.387 293.609,-597.387 293.609,-597.387 293.743,-602.385 289.11,-597.507 293.876,-607.383 293.876,-607.383"/>
</g>
<!-- Shop&#45;&gt;ContactDetail -->
<g id="edge11" class="edge"><title>Shop&#45;&gt;ContactDetail</title>
<path fill="none" stroke="#119730" d="M353.473,-650.18C361.089,-640.072 368.766,-629.803 376,-620 378.097,-617.158 380.218,-614.274 382.354,-611.361"/>
<ellipse fill="none" stroke="#119730" cx="350.892" cy="-653.6" rx="4.00002" ry="4.00002"/>
<ellipse fill="#119730" stroke="#119730" cx="384.998" cy="-607.746" rx="4.00002" ry="4.00002"/>
</g>
</g>
</svg>
